<svg data-v-423bf9ae="" xmlns="http://www.w3.org/2000/svg" viewBox="0 0 638.446016544418 60" class="font"><!----><!----><!----><g data-v-423bf9ae="" id="49003137-87a2-4cb0-9e02-9c65b46a3971" fill="white" transform="matrix(5.484460426963632,0,0,5.484460426963632,-2.3583155762087813,-16.45338223456521)"><path d="M3.05 13.78L5.42 13.78L7.97 6.64L5.99 6.64L4.90 10.05C4.68 10.77 4.49 11.51 4.28 12.25L4.23 12.25C4.02 11.51 3.82 10.77 3.60 10.05L2.51 6.64L0.43 6.64ZM12.57 5.80C13.38 5.80 13.97 5.26 13.97 4.42C13.97 3.58 13.38 3.00 12.57 3.00C11.76 3.00 11.17 3.58 11.17 4.42C11.17 5.26 11.76 5.80 12.57 5.80ZM9.25 13.78L16.07 13.78L16.07 12.11L13.69 12.11L13.69 6.64L9.25 6.64L9.25 8.25L11.63 8.25L11.63 12.11L9.25 12.11ZM20.94 13.94C23.17 13.94 24.36 12.95 24.36 11.66C24.36 10.43 23.17 9.90 21.80 9.52C20.82 9.25 20.02 9.03 20.02 8.58C20.02 8.20 20.36 7.99 21.22 7.99C21.95 7.99 22.62 8.27 23.25 8.67L24.18 7.43C23.45 6.96 22.41 6.45 21.18 6.45C19.19 6.45 17.98 7.36 17.98 8.68C17.98 9.81 19.24 10.42 20.45 10.77C21.57 11.09 22.32 11.34 22.32 11.79C22.32 12.18 21.92 12.42 20.99 12.42C20.06 12.42 19.26 12.08 18.47 11.56L17.54 12.85C18.42 13.45 19.70 13.94 20.94 13.94ZM26.21 13.78L28.27 13.78L28.27 9.00C28.76 8.48 29.12 8.20 29.68 8.20C30.44 8.20 30.70 8.65 30.70 9.63L30.70 13.78L32.76 13.78L32.76 9.37C32.76 7.56 32.06 6.45 30.51 6.45C29.46 6.45 28.70 6.99 28.15 7.55L28.27 6.16L28.27 3.65L26.21 3.65ZM34.61 13.78L36.67 13.78L36.67 9.00C37.16 8.48 37.52 8.20 38.08 8.20C38.84 8.20 39.10 8.65 39.10 9.63L39.10 13.78L41.16 13.78L41.16 9.37C41.16 7.56 40.46 6.45 38.89 6.45C37.86 6.45 37.10 6.99 36.50 7.60L36.44 7.60L36.29 6.64L34.61 6.64ZM45.12 13.94C46.12 13.94 46.84 13.47 47.46 12.74L47.52 12.74L47.67 13.78L49.35 13.78L49.35 6.64L47.29 6.64L47.29 11.34C46.82 12.00 46.45 12.19 45.93 12.19C45.16 12.19 44.93 11.76 44.93 10.78L44.93 6.64L42.87 6.64L42.87 11.05C42.87 12.85 43.54 13.94 45.12 13.94ZM51.46 13.78L53.52 13.78L53.52 11.97L54.54 10.82L56.36 13.78L58.59 13.78L55.75 9.56L58.38 6.64L56.13 6.64L53.58 9.58L53.52 9.58L53.52 3.65L51.46 3.65ZM61.94 13.94C62.83 13.94 63.70 13.51 64.40 12.96L64.46 12.96L64.61 13.78L66.29 13.78L66.29 9.66C66.29 7.50 65.10 6.45 63.15 6.45C61.96 6.45 60.86 6.87 60.19 7.43L60.91 8.78C61.42 8.37 62.08 8.11 62.75 8.11C63.69 8.11 64.16 8.51 64.23 9.18C60.94 9.39 59.65 10.21 59.65 11.80C59.65 13.01 60.54 13.94 61.94 13.94ZM62.59 12.35C62.01 12.35 61.63 12.12 61.63 11.65C61.63 11.00 62.19 10.54 64.23 10.42L64.23 11.65C63.74 12.05 63.21 12.35 62.59 12.35ZM68.21 13.78L70.27 13.78L70.27 9.00C70.76 8.48 71.12 8.20 71.68 8.20C72.44 8.20 72.70 8.65 72.70 9.63L72.70 13.78L74.76 13.78L74.76 9.37C74.76 7.56 74.06 6.45 72.49 6.45C71.46 6.45 70.70 6.99 70.10 7.60L70.04 7.60L69.89 6.64L68.21 6.64ZM81.03 13.94C81.93 13.94 82.68 13.75 83.30 13.55L82.94 12.07C82.53 12.22 82.08 12.33 81.55 12.33C80.54 12.33 80.09 11.90 80.09 10.81L80.09 8.25L83.03 8.25L83.03 6.64L80.09 6.64L80.09 3.70L78.13 4.54L78.13 6.64L76.29 6.64L76.29 8.25L78.04 8.25L78.04 10.82C78.04 12.68 78.82 13.94 81.03 13.94ZM84.50 13.78L86.44 13.78L86.44 8.93C86.63 8.46 86.80 8.20 87.07 8.20C87.33 8.20 87.47 8.44 87.47 8.92L87.47 13.78L89.05 13.78L89.05 8.93C89.24 8.46 89.43 8.20 89.70 8.20C89.98 8.20 90.09 8.44 90.09 8.92L90.09 13.78L92.02 13.78L92.02 8.76C92.02 7.34 91.45 6.45 90.48 6.45C89.70 6.45 89.21 6.97 88.96 7.63C88.79 6.86 88.35 6.45 87.74 6.45C86.94 6.45 86.52 6.93 86.25 7.53L86.20 7.53L86.04 6.64L84.50 6.64ZM95.52 13.94C96.52 13.94 97.24 13.47 97.86 12.74L97.92 12.74L98.07 13.78L99.75 13.78L99.75 6.64L97.69 6.64L97.69 11.34C97.22 12.00 96.85 12.19 96.33 12.19C95.56 12.19 95.33 11.76 95.33 10.78L95.33 6.64L93.27 6.64L93.27 11.05C93.27 12.85 93.94 13.94 95.52 13.94ZM106.33 13.94C107.20 13.94 107.69 13.79 108.42 13.55L107.95 12.04C107.52 12.22 107.18 12.28 106.86 12.28C106.29 12.28 105.74 11.98 105.74 11.10L105.74 3.65L101.67 3.65L101.67 5.28L103.68 5.28L103.68 11.00C103.68 12.81 104.58 13.94 106.33 13.94ZM113.82 13.94C114.74 13.94 115.78 13.62 116.56 13.12L115.89 11.87C115.28 12.21 114.73 12.38 114.10 12.38C113.08 12.38 112.22 11.90 112.08 10.81L116.76 10.81C116.79 10.63 116.84 10.25 116.84 9.88C116.84 7.94 115.72 6.45 113.58 6.45C111.73 6.45 109.97 7.87 109.97 10.21C109.97 12.57 111.66 13.94 113.82 13.94ZM112.06 9.44C112.24 8.48 112.88 8.04 113.62 8.04C114.56 8.04 114.98 8.60 114.98 9.44Z"></path></g><!----><!----></svg>